<svg width="192" height="192" xmlns:xlink="http://www.w3.org/1999/xlink" xmlns="http://www.w3.org/2000/svg"><defs><linearGradient id="a"><stop style="stop-color:#ff655b;stop-opacity:1" offset="0"/><stop style="stop-color:#fd297b;stop-opacity:1" offset="1"/></linearGradient><linearGradient xlink:href="#a" id="b" x1="47" y1="161.7" x2="126.7" y2="31.7" gradientUnits="userSpaceOnUse"/></defs><g fill="none" fill-rule="evenodd"><path fill="#5181B8" d="M67 0h58c54 0 67 13 67 67v58c0 54-13 67-67 67H67c-54 0-67-13-67-67V67C0 13 13 0 67 0Z" style="fill:url(#b);fill-opacity:1;stroke:none"/><path fill="#fff" d="M166 62c1-4 0-6-5-6h-17c-4 0-6 2-7 4 0 0-8 21-20 34-4 4-6 5-8 5-1 0-3-1-3-4V62c0-5-1-6-4-6H75c-2 0-4 2-4 3 0 4 6 5 7 17v24c0 5-1 6-3 6-6 0-19-20-28-44-1-5-3-6-7-6H23c-4 0-5 2-5 4 0 5 5 26 26 55 14 20 33 31 50 31 11 0 12-3 12-7v-15c0-4 1-5 5-5 2 0 6 1 16 10 11 12 13 17 20 17h16c5 0 7-3 6-7-2-5-7-12-14-20l-12-12c-2-3-1-4 0-7 0 0 21-29 23-38z" style="stroke-width:1.18423"/></g></svg>